<?xml version="1.0" encoding="utf-8" standalone="no"?>
<!DOCTYPE svg PUBLIC "-//W3C//DTD SVG 1.1//EN"
  "http://www.w3.org/Graphics/SVG/1.1/DTD/svg11.dtd">
<!-- Created with matplotlib (https://matplotlib.org/) -->
<svg height="709.92pt" version="1.1" viewBox="0 0 1382.4 709.92" width="1382.4pt" xmlns="http://www.w3.org/2000/svg" xmlns:xlink="http://www.w3.org/1999/xlink">
 <defs>
  <style type="text/css">
*{stroke-linecap:butt;stroke-linejoin:round;}
  </style>
 </defs>
 <g id="figure_1">
  <g id="patch_1">
   <path d="M 0 709.92 
L 1382.4 709.92 
L 1382.4 0 
L 0 0 
z
" style="fill:#ffffff;"/>
  </g>
  <g id="axes_1">
   <g id="patch_2">
    <path d="M 67.79 653.56 
L 1371.6 653.56 
L 1371.6 10.8 
L 67.79 10.8 
z
" style="fill:#ffffff;"/>
   </g>
   <g id="matplotlib.axis_1">
    <g id="xtick_1">
     <g id="line2d_1">
      <defs>
       <path d="M 0 0 
L 0 3.5 
" id="m52aa8a989d" style="stroke:#000000;stroke-width:0.8;"/>
      </defs>
      <g>
       <use style="stroke:#000000;stroke-width:0.8;" x="183.820462" xlink:href="#m52aa8a989d" y="653.56"/>
      </g>
     </g>
     <g id="text_1">
      <!-- 500 -->
      <defs>
       <path d="M 10.796875 72.90625 
L 49.515625 72.90625 
L 49.515625 64.59375 
L 19.828125 64.59375 
L 19.828125 46.734375 
Q 21.96875 47.46875 24.109375 47.828125 
Q 26.265625 48.1875 28.421875 48.1875 
Q 40.625 48.1875 47.75 41.5 
Q 54.890625 34.8125 54.890625 23.390625 
Q 54.890625 11.625 47.5625 5.09375 
Q 40.234375 -1.421875 26.90625 -1.421875 
Q 22.3125 -1.421875 17.546875 -0.640625 
Q 12.796875 0.140625 7.71875 1.703125 
L 7.71875 11.625 
Q 12.109375 9.234375 16.796875 8.0625 
Q 21.484375 6.890625 26.703125 6.890625 
Q 35.15625 6.890625 40.078125 11.328125 
Q 45.015625 15.765625 45.015625 23.390625 
Q 45.015625 31 40.078125 35.4375 
Q 35.15625 39.890625 26.703125 39.890625 
Q 22.75 39.890625 18.8125 39.015625 
Q 14.890625 38.140625 10.796875 36.28125 
z
" id="DejaVuSans-53"/>
       <path d="M 31.78125 66.40625 
Q 24.171875 66.40625 20.328125 58.90625 
Q 16.5 51.421875 16.5 36.375 
Q 16.5 21.390625 20.328125 13.890625 
Q 24.171875 6.390625 31.78125 6.390625 
Q 39.453125 6.390625 43.28125 13.890625 
Q 47.125 21.390625 47.125 36.375 
Q 47.125 51.421875 43.28125 58.90625 
Q 39.453125 66.40625 31.78125 66.40625 
z
M 31.78125 74.21875 
Q 44.046875 74.21875 50.515625 64.515625 
Q 56.984375 54.828125 56.984375 36.375 
Q 56.984375 17.96875 50.515625 8.265625 
Q 44.046875 -1.421875 31.78125 -1.421875 
Q 19.53125 -1.421875 13.0625 8.265625 
Q 6.59375 17.96875 6.59375 36.375 
Q 6.59375 54.828125 13.0625 64.515625 
Q 19.53125 74.21875 31.78125 74.21875 
z
" id="DejaVuSans-48"/>
      </defs>
      <g transform="translate(166.641712 674.237188)scale(0.18 -0.18)">
       <use xlink:href="#DejaVuSans-53"/>
       <use x="63.623047" xlink:href="#DejaVuSans-48"/>
       <use x="127.246094" xlink:href="#DejaVuSans-48"/>
      </g>
     </g>
    </g>
    <g id="xtick_2">
     <g id="line2d_2">
      <g>
       <use style="stroke:#000000;stroke-width:0.8;" x="467.652315" xlink:href="#m52aa8a989d" y="653.56"/>
      </g>
     </g>
     <g id="text_2">
      <!-- 1000 -->
      <defs>
       <path d="M 12.40625 8.296875 
L 28.515625 8.296875 
L 28.515625 63.921875 
L 10.984375 60.40625 
L 10.984375 69.390625 
L 28.421875 72.90625 
L 38.28125 72.90625 
L 38.28125 8.296875 
L 54.390625 8.296875 
L 54.390625 0 
L 12.40625 0 
z
" id="DejaVuSans-49"/>
      </defs>
      <g transform="translate(444.747315 674.237188)scale(0.18 -0.18)">
       <use xlink:href="#DejaVuSans-49"/>
       <use x="63.623047" xlink:href="#DejaVuSans-48"/>
       <use x="127.246094" xlink:href="#DejaVuSans-48"/>
       <use x="190.869141" xlink:href="#DejaVuSans-48"/>
      </g>
     </g>
    </g>
    <g id="xtick_3">
     <g id="line2d_3">
      <g>
       <use style="stroke:#000000;stroke-width:0.8;" x="751.484168" xlink:href="#m52aa8a989d" y="653.56"/>
      </g>
     </g>
     <g id="text_3">
      <!-- 1500 -->
      <g transform="translate(728.579168 674.237188)scale(0.18 -0.18)">
       <use xlink:href="#DejaVuSans-49"/>
       <use x="63.623047" xlink:href="#DejaVuSans-53"/>
       <use x="127.246094" xlink:href="#DejaVuSans-48"/>
       <use x="190.869141" xlink:href="#DejaVuSans-48"/>
      </g>
     </g>
    </g>
    <g id="xtick_4">
     <g id="line2d_4">
      <g>
       <use style="stroke:#000000;stroke-width:0.8;" x="1035.316021" xlink:href="#m52aa8a989d" y="653.56"/>
      </g>
     </g>
     <g id="text_4">
      <!-- 2000 -->
      <defs>
       <path d="M 19.1875 8.296875 
L 53.609375 8.296875 
L 53.609375 0 
L 7.328125 0 
L 7.328125 8.296875 
Q 12.9375 14.109375 22.625 23.890625 
Q 32.328125 33.6875 34.8125 36.53125 
Q 39.546875 41.84375 41.421875 45.53125 
Q 43.3125 49.21875 43.3125 52.78125 
Q 43.3125 58.59375 39.234375 62.25 
Q 35.15625 65.921875 28.609375 65.921875 
Q 23.96875 65.921875 18.8125 64.3125 
Q 13.671875 62.703125 7.8125 59.421875 
L 7.8125 69.390625 
Q 13.765625 71.78125 18.9375 73 
Q 24.125 74.21875 28.421875 74.21875 
Q 39.75 74.21875 46.484375 68.546875 
Q 53.21875 62.890625 53.21875 53.421875 
Q 53.21875 48.921875 51.53125 44.890625 
Q 49.859375 40.875 45.40625 35.40625 
Q 44.1875 33.984375 37.640625 27.21875 
Q 31.109375 20.453125 19.1875 8.296875 
z
" id="DejaVuSans-50"/>
      </defs>
      <g transform="translate(1012.411021 674.237188)scale(0.18 -0.18)">
       <use xlink:href="#DejaVuSans-50"/>
       <use x="63.623047" xlink:href="#DejaVuSans-48"/>
       <use x="127.246094" xlink:href="#DejaVuSans-48"/>
       <use x="190.869141" xlink:href="#DejaVuSans-48"/>
      </g>
     </g>
    </g>
    <g id="xtick_5">
     <g id="line2d_5">
      <g>
       <use style="stroke:#000000;stroke-width:0.8;" x="1319.147874" xlink:href="#m52aa8a989d" y="653.56"/>
      </g>
     </g>
     <g id="text_5">
      <!-- 2500 -->
      <g transform="translate(1296.242874 674.237188)scale(0.18 -0.18)">
       <use xlink:href="#DejaVuSans-50"/>
       <use x="63.623047" xlink:href="#DejaVuSans-53"/>
       <use x="127.246094" xlink:href="#DejaVuSans-48"/>
       <use x="190.869141" xlink:href="#DejaVuSans-48"/>
      </g>
     </g>
    </g>
    <g id="text_6">
     <!-- Wavelength (nm) -->
     <defs>
      <path d="M 3.328125 72.90625 
L 13.28125 72.90625 
L 28.609375 11.28125 
L 43.890625 72.90625 
L 54.984375 72.90625 
L 70.3125 11.28125 
L 85.59375 72.90625 
L 95.609375 72.90625 
L 77.296875 0 
L 64.890625 0 
L 49.515625 63.28125 
L 33.984375 0 
L 21.578125 0 
z
" id="DejaVuSans-87"/>
      <path d="M 34.28125 27.484375 
Q 23.390625 27.484375 19.1875 25 
Q 14.984375 22.515625 14.984375 16.5 
Q 14.984375 11.71875 18.140625 8.90625 
Q 21.296875 6.109375 26.703125 6.109375 
Q 34.1875 6.109375 38.703125 11.40625 
Q 43.21875 16.703125 43.21875 25.484375 
L 43.21875 27.484375 
z
M 52.203125 31.203125 
L 52.203125 0 
L 43.21875 0 
L 43.21875 8.296875 
Q 40.140625 3.328125 35.546875 0.953125 
Q 30.953125 -1.421875 24.3125 -1.421875 
Q 15.921875 -1.421875 10.953125 3.296875 
Q 6 8.015625 6 15.921875 
Q 6 25.140625 12.171875 29.828125 
Q 18.359375 34.515625 30.609375 34.515625 
L 43.21875 34.515625 
L 43.21875 35.40625 
Q 43.21875 41.609375 39.140625 45 
Q 35.0625 48.390625 27.6875 48.390625 
Q 23 48.390625 18.546875 47.265625 
Q 14.109375 46.140625 10.015625 43.890625 
L 10.015625 52.203125 
Q 14.9375 54.109375 19.578125 55.046875 
Q 24.21875 56 28.609375 56 
Q 40.484375 56 46.34375 49.84375 
Q 52.203125 43.703125 52.203125 31.203125 
z
" id="DejaVuSans-97"/>
      <path d="M 2.984375 54.6875 
L 12.5 54.6875 
L 29.59375 8.796875 
L 46.6875 54.6875 
L 56.203125 54.6875 
L 35.6875 0 
L 23.484375 0 
z
" id="DejaVuSans-118"/>
      <path d="M 56.203125 29.59375 
L 56.203125 25.203125 
L 14.890625 25.203125 
Q 15.484375 15.921875 20.484375 11.0625 
Q 25.484375 6.203125 34.421875 6.203125 
Q 39.59375 6.203125 44.453125 7.46875 
Q 49.3125 8.734375 54.109375 11.28125 
L 54.109375 2.78125 
Q 49.265625 0.734375 44.1875 -0.34375 
Q 39.109375 -1.421875 33.890625 -1.421875 
Q 20.796875 -1.421875 13.15625 6.1875 
Q 5.515625 13.8125 5.515625 26.8125 
Q 5.515625 40.234375 12.765625 48.109375 
Q 20.015625 56 32.328125 56 
Q 43.359375 56 49.78125 48.890625 
Q 56.203125 41.796875 56.203125 29.59375 
z
M 47.21875 32.234375 
Q 47.125 39.59375 43.09375 43.984375 
Q 39.0625 48.390625 32.421875 48.390625 
Q 24.90625 48.390625 20.390625 44.140625 
Q 15.875 39.890625 15.1875 32.171875 
z
" id="DejaVuSans-101"/>
      <path d="M 9.421875 75.984375 
L 18.40625 75.984375 
L 18.40625 0 
L 9.421875 0 
z
" id="DejaVuSans-108"/>
      <path d="M 54.890625 33.015625 
L 54.890625 0 
L 45.90625 0 
L 45.90625 32.71875 
Q 45.90625 40.484375 42.875 44.328125 
Q 39.84375 48.1875 33.796875 48.1875 
Q 26.515625 48.1875 22.3125 43.546875 
Q 18.109375 38.921875 18.109375 30.90625 
L 18.109375 0 
L 9.078125 0 
L 9.078125 54.6875 
L 18.109375 54.6875 
L 18.109375 46.1875 
Q 21.34375 51.125 25.703125 53.5625 
Q 30.078125 56 35.796875 56 
Q 45.21875 56 50.046875 50.171875 
Q 54.890625 44.34375 54.890625 33.015625 
z
" id="DejaVuSans-110"/>
      <path d="M 45.40625 27.984375 
Q 45.40625 37.75 41.375 43.109375 
Q 37.359375 48.484375 30.078125 48.484375 
Q 22.859375 48.484375 18.828125 43.109375 
Q 14.796875 37.75 14.796875 27.984375 
Q 14.796875 18.265625 18.828125 12.890625 
Q 22.859375 7.515625 30.078125 7.515625 
Q 37.359375 7.515625 41.375 12.890625 
Q 45.40625 18.265625 45.40625 27.984375 
z
M 54.390625 6.78125 
Q 54.390625 -7.171875 48.1875 -13.984375 
Q 42 -20.796875 29.203125 -20.796875 
Q 24.46875 -20.796875 20.265625 -20.09375 
Q 16.0625 -19.390625 12.109375 -17.921875 
L 12.109375 -9.1875 
Q 16.0625 -11.328125 19.921875 -12.34375 
Q 23.78125 -13.375 27.78125 -13.375 
Q 36.625 -13.375 41.015625 -8.765625 
Q 45.40625 -4.15625 45.40625 5.171875 
L 45.40625 9.625 
Q 42.625 4.78125 38.28125 2.390625 
Q 33.9375 0 27.875 0 
Q 17.828125 0 11.671875 7.65625 
Q 5.515625 15.328125 5.515625 27.984375 
Q 5.515625 40.671875 11.671875 48.328125 
Q 17.828125 56 27.875 56 
Q 33.9375 56 38.28125 53.609375 
Q 42.625 51.21875 45.40625 46.390625 
L 45.40625 54.6875 
L 54.390625 54.6875 
z
" id="DejaVuSans-103"/>
      <path d="M 18.3125 70.21875 
L 18.3125 54.6875 
L 36.8125 54.6875 
L 36.8125 47.703125 
L 18.3125 47.703125 
L 18.3125 18.015625 
Q 18.3125 11.328125 20.140625 9.421875 
Q 21.96875 7.515625 27.59375 7.515625 
L 36.8125 7.515625 
L 36.8125 0 
L 27.59375 0 
Q 17.1875 0 13.234375 3.875 
Q 9.28125 7.765625 9.28125 18.015625 
L 9.28125 47.703125 
L 2.6875 47.703125 
L 2.6875 54.6875 
L 9.28125 54.6875 
L 9.28125 70.21875 
z
" id="DejaVuSans-116"/>
      <path d="M 54.890625 33.015625 
L 54.890625 0 
L 45.90625 0 
L 45.90625 32.71875 
Q 45.90625 40.484375 42.875 44.328125 
Q 39.84375 48.1875 33.796875 48.1875 
Q 26.515625 48.1875 22.3125 43.546875 
Q 18.109375 38.921875 18.109375 30.90625 
L 18.109375 0 
L 9.078125 0 
L 9.078125 75.984375 
L 18.109375 75.984375 
L 18.109375 46.1875 
Q 21.34375 51.125 25.703125 53.5625 
Q 30.078125 56 35.796875 56 
Q 45.21875 56 50.046875 50.171875 
Q 54.890625 44.34375 54.890625 33.015625 
z
" id="DejaVuSans-104"/>
      <path id="DejaVuSans-32"/>
      <path d="M 31 75.875 
Q 24.46875 64.65625 21.28125 53.65625 
Q 18.109375 42.671875 18.109375 31.390625 
Q 18.109375 20.125 21.3125 9.0625 
Q 24.515625 -2 31 -13.1875 
L 23.1875 -13.1875 
Q 15.875 -1.703125 12.234375 9.375 
Q 8.59375 20.453125 8.59375 31.390625 
Q 8.59375 42.28125 12.203125 53.3125 
Q 15.828125 64.359375 23.1875 75.875 
z
" id="DejaVuSans-40"/>
      <path d="M 52 44.1875 
Q 55.375 50.25 60.0625 53.125 
Q 64.75 56 71.09375 56 
Q 79.640625 56 84.28125 50.015625 
Q 88.921875 44.046875 88.921875 33.015625 
L 88.921875 0 
L 79.890625 0 
L 79.890625 32.71875 
Q 79.890625 40.578125 77.09375 44.375 
Q 74.3125 48.1875 68.609375 48.1875 
Q 61.625 48.1875 57.5625 43.546875 
Q 53.515625 38.921875 53.515625 30.90625 
L 53.515625 0 
L 44.484375 0 
L 44.484375 32.71875 
Q 44.484375 40.625 41.703125 44.40625 
Q 38.921875 48.1875 33.109375 48.1875 
Q 26.21875 48.1875 22.15625 43.53125 
Q 18.109375 38.875 18.109375 30.90625 
L 18.109375 0 
L 9.078125 0 
L 9.078125 54.6875 
L 18.109375 54.6875 
L 18.109375 46.1875 
Q 21.1875 51.21875 25.484375 53.609375 
Q 29.78125 56 35.6875 56 
Q 41.65625 56 45.828125 52.96875 
Q 50 49.953125 52 44.1875 
z
" id="DejaVuSans-109"/>
      <path d="M 8.015625 75.875 
L 15.828125 75.875 
Q 23.140625 64.359375 26.78125 53.3125 
Q 30.421875 42.28125 30.421875 31.390625 
Q 30.421875 20.453125 26.78125 9.375 
Q 23.140625 -1.703125 15.828125 -13.1875 
L 8.015625 -13.1875 
Q 14.5 -2 17.703125 9.0625 
Q 20.90625 20.125 20.90625 31.390625 
Q 20.90625 42.671875 17.703125 53.65625 
Q 14.5 64.65625 8.015625 75.875 
z
" id="DejaVuSans-41"/>
     </defs>
     <g transform="translate(641.38375 695.657812)scale(0.18 -0.18)">
      <use xlink:href="#DejaVuSans-87"/>
      <use x="98.783203" xlink:href="#DejaVuSans-97"/>
      <use x="160.0625" xlink:href="#DejaVuSans-118"/>
      <use x="219.242188" xlink:href="#DejaVuSans-101"/>
      <use x="280.765625" xlink:href="#DejaVuSans-108"/>
      <use x="308.548828" xlink:href="#DejaVuSans-101"/>
      <use x="370.072266" xlink:href="#DejaVuSans-110"/>
      <use x="433.451172" xlink:href="#DejaVuSans-103"/>
      <use x="496.927734" xlink:href="#DejaVuSans-116"/>
      <use x="536.136719" xlink:href="#DejaVuSans-104"/>
      <use x="599.515625" xlink:href="#DejaVuSans-32"/>
      <use x="631.302734" xlink:href="#DejaVuSans-40"/>
      <use x="670.316406" xlink:href="#DejaVuSans-110"/>
      <use x="733.695312" xlink:href="#DejaVuSans-109"/>
      <use x="831.107422" xlink:href="#DejaVuSans-41"/>
     </g>
    </g>
   </g>
   <g id="matplotlib.axis_2">
    <g id="ytick_1">
     <g id="line2d_6">
      <defs>
       <path d="M 0 0 
L -3.5 0 
" id="m4254c113af" style="stroke:#000000;stroke-width:0.8;"/>
      </defs>
      <g>
       <use style="stroke:#000000;stroke-width:0.8;" x="67.79" xlink:href="#m4254c113af" y="621.399826"/>
      </g>
     </g>
     <g id="text_7">
      <!-- 0.1 -->
      <defs>
       <path d="M 10.6875 12.40625 
L 21 12.40625 
L 21 0 
L 10.6875 0 
z
" id="DejaVuSans-46"/>
      </defs>
      <g transform="translate(32.164375 628.238419)scale(0.18 -0.18)">
       <use xlink:href="#DejaVuSans-48"/>
       <use x="63.623047" xlink:href="#DejaVuSans-46"/>
       <use x="95.410156" xlink:href="#DejaVuSans-49"/>
      </g>
     </g>
    </g>
    <g id="ytick_2">
     <g id="line2d_7">
      <g>
       <use style="stroke:#000000;stroke-width:0.8;" x="67.79" xlink:href="#m4254c113af" y="493.51925"/>
      </g>
     </g>
     <g id="text_8">
      <!-- 0.2 -->
      <g transform="translate(32.164375 500.357843)scale(0.18 -0.18)">
       <use xlink:href="#DejaVuSans-48"/>
       <use x="63.623047" xlink:href="#DejaVuSans-46"/>
       <use x="95.410156" xlink:href="#DejaVuSans-50"/>
      </g>
     </g>
    </g>
    <g id="ytick_3">
     <g id="line2d_8">
      <g>
       <use style="stroke:#000000;stroke-width:0.8;" x="67.79" xlink:href="#m4254c113af" y="365.638674"/>
      </g>
     </g>
     <g id="text_9">
      <!-- 0.3 -->
      <defs>
       <path d="M 40.578125 39.3125 
Q 47.65625 37.796875 51.625 33 
Q 55.609375 28.21875 55.609375 21.1875 
Q 55.609375 10.40625 48.1875 4.484375 
Q 40.765625 -1.421875 27.09375 -1.421875 
Q 22.515625 -1.421875 17.65625 -0.515625 
Q 12.796875 0.390625 7.625 2.203125 
L 7.625 11.71875 
Q 11.71875 9.328125 16.59375 8.109375 
Q 21.484375 6.890625 26.8125 6.890625 
Q 36.078125 6.890625 40.9375 10.546875 
Q 45.796875 14.203125 45.796875 21.1875 
Q 45.796875 27.640625 41.28125 31.265625 
Q 36.765625 34.90625 28.71875 34.90625 
L 20.21875 34.90625 
L 20.21875 43.015625 
L 29.109375 43.015625 
Q 36.375 43.015625 40.234375 45.921875 
Q 44.09375 48.828125 44.09375 54.296875 
Q 44.09375 59.90625 40.109375 62.90625 
Q 36.140625 65.921875 28.71875 65.921875 
Q 24.65625 65.921875 20.015625 65.03125 
Q 15.375 64.15625 9.8125 62.3125 
L 9.8125 71.09375 
Q 15.4375 72.65625 20.34375 73.4375 
Q 25.25 74.21875 29.59375 74.21875 
Q 40.828125 74.21875 47.359375 69.109375 
Q 53.90625 64.015625 53.90625 55.328125 
Q 53.90625 49.265625 50.4375 45.09375 
Q 46.96875 40.921875 40.578125 39.3125 
z
" id="DejaVuSans-51"/>
      </defs>
      <g transform="translate(32.164375 372.477268)scale(0.18 -0.18)">
       <use xlink:href="#DejaVuSans-48"/>
       <use x="63.623047" xlink:href="#DejaVuSans-46"/>
       <use x="95.410156" xlink:href="#DejaVuSans-51"/>
      </g>
     </g>
    </g>
    <g id="ytick_4">
     <g id="line2d_9">
      <g>
       <use style="stroke:#000000;stroke-width:0.8;" x="67.79" xlink:href="#m4254c113af" y="237.758098"/>
      </g>
     </g>
     <g id="text_10">
      <!-- 0.4 -->
      <defs>
       <path d="M 37.796875 64.3125 
L 12.890625 25.390625 
L 37.796875 25.390625 
z
M 35.203125 72.90625 
L 47.609375 72.90625 
L 47.609375 25.390625 
L 58.015625 25.390625 
L 58.015625 17.1875 
L 47.609375 17.1875 
L 47.609375 0 
L 37.796875 0 
L 37.796875 17.1875 
L 4.890625 17.1875 
L 4.890625 26.703125 
z
" id="DejaVuSans-52"/>
      </defs>
      <g transform="translate(32.164375 244.596692)scale(0.18 -0.18)">
       <use xlink:href="#DejaVuSans-48"/>
       <use x="63.623047" xlink:href="#DejaVuSans-46"/>
       <use x="95.410156" xlink:href="#DejaVuSans-52"/>
      </g>
     </g>
    </g>
    <g id="ytick_5">
     <g id="line2d_10">
      <g>
       <use style="stroke:#000000;stroke-width:0.8;" x="67.79" xlink:href="#m4254c113af" y="109.877522"/>
      </g>
     </g>
     <g id="text_11">
      <!-- 0.5 -->
      <g transform="translate(32.164375 116.716116)scale(0.18 -0.18)">
       <use xlink:href="#DejaVuSans-48"/>
       <use x="63.623047" xlink:href="#DejaVuSans-46"/>
       <use x="95.410156" xlink:href="#DejaVuSans-53"/>
      </g>
     </g>
    </g>
    <g id="text_12">
     <!-- Reflectance -->
     <defs>
      <path d="M 44.390625 34.1875 
Q 47.5625 33.109375 50.5625 29.59375 
Q 53.5625 26.078125 56.59375 19.921875 
L 66.609375 0 
L 56 0 
L 46.6875 18.703125 
Q 43.0625 26.03125 39.671875 28.421875 
Q 36.28125 30.8125 30.421875 30.8125 
L 19.671875 30.8125 
L 19.671875 0 
L 9.8125 0 
L 9.8125 72.90625 
L 32.078125 72.90625 
Q 44.578125 72.90625 50.734375 67.671875 
Q 56.890625 62.453125 56.890625 51.90625 
Q 56.890625 45.015625 53.6875 40.46875 
Q 50.484375 35.9375 44.390625 34.1875 
z
M 19.671875 64.796875 
L 19.671875 38.921875 
L 32.078125 38.921875 
Q 39.203125 38.921875 42.84375 42.21875 
Q 46.484375 45.515625 46.484375 51.90625 
Q 46.484375 58.296875 42.84375 61.546875 
Q 39.203125 64.796875 32.078125 64.796875 
z
" id="DejaVuSans-82"/>
      <path d="M 37.109375 75.984375 
L 37.109375 68.5 
L 28.515625 68.5 
Q 23.6875 68.5 21.796875 66.546875 
Q 19.921875 64.59375 19.921875 59.515625 
L 19.921875 54.6875 
L 34.71875 54.6875 
L 34.71875 47.703125 
L 19.921875 47.703125 
L 19.921875 0 
L 10.890625 0 
L 10.890625 47.703125 
L 2.296875 47.703125 
L 2.296875 54.6875 
L 10.890625 54.6875 
L 10.890625 58.5 
Q 10.890625 67.625 15.140625 71.796875 
Q 19.390625 75.984375 28.609375 75.984375 
z
" id="DejaVuSans-102"/>
      <path d="M 48.78125 52.59375 
L 48.78125 44.1875 
Q 44.96875 46.296875 41.140625 47.34375 
Q 37.3125 48.390625 33.40625 48.390625 
Q 24.65625 48.390625 19.8125 42.84375 
Q 14.984375 37.3125 14.984375 27.296875 
Q 14.984375 17.28125 19.8125 11.734375 
Q 24.65625 6.203125 33.40625 6.203125 
Q 37.3125 6.203125 41.140625 7.25 
Q 44.96875 8.296875 48.78125 10.40625 
L 48.78125 2.09375 
Q 45.015625 0.34375 40.984375 -0.53125 
Q 36.96875 -1.421875 32.421875 -1.421875 
Q 20.0625 -1.421875 12.78125 6.34375 
Q 5.515625 14.109375 5.515625 27.296875 
Q 5.515625 40.671875 12.859375 48.328125 
Q 20.21875 56 33.015625 56 
Q 37.15625 56 41.109375 55.140625 
Q 45.0625 54.296875 48.78125 52.59375 
z
" id="DejaVuSans-99"/>
     </defs>
     <g transform="translate(24.420937 385.354531)rotate(-90)scale(0.18 -0.18)">
      <use xlink:href="#DejaVuSans-82"/>
      <use x="69.419922" xlink:href="#DejaVuSans-101"/>
      <use x="130.943359" xlink:href="#DejaVuSans-102"/>
      <use x="166.148438" xlink:href="#DejaVuSans-108"/>
      <use x="193.931641" xlink:href="#DejaVuSans-101"/>
      <use x="255.455078" xlink:href="#DejaVuSans-99"/>
      <use x="310.435547" xlink:href="#DejaVuSans-116"/>
      <use x="349.644531" xlink:href="#DejaVuSans-97"/>
      <use x="410.923828" xlink:href="#DejaVuSans-110"/>
      <use x="474.302734" xlink:href="#DejaVuSans-99"/>
      <use x="529.283203" xlink:href="#DejaVuSans-101"/>
     </g>
    </g>
   </g>
   <g id="line2d_11">
    <path clip-path="url(#pbcb12aef83)" d="M 127.054091 560.873949 
L 133.866055 610.849678 
L 140.67802 619.941987 
L 147.489984 622.54052 
L 154.301949 623.700397 
L 161.113913 624.260514 
L 167.925878 624.343636 
L 174.737842 623.071225 
L 181.549807 619.865259 
L 188.361771 614.91628 
L 195.173736 608.72686 
L 222.421594 581.590602 
L 229.233558 575.260514 
L 236.045522 569.608192 
L 242.857487 564.429029 
L 249.669451 558.738343 
L 256.481416 552.152494 
L 263.29338 544.850513 
L 270.105345 536.857977 
L 276.917309 528.417859 
L 304.165167 493.532038 
L 310.977132 485.411621 
L 317.789096 477.815515 
L 324.601061 470.769295 
L 331.413025 464.298538 
L 338.22499 458.377667 
L 345.036954 452.942743 
L 351.848918 448.096069 
L 358.660883 443.952738 
L 365.472847 440.052381 
L 379.096776 431.931964 
L 385.908741 428.607069 
L 399.53267 423.044264 
L 426.780528 412.4046 
L 440.404457 407.302165 
L 467.652315 397.544878 
L 481.276243 393.158574 
L 494.900172 389.207064 
L 522.14803 382.199208 
L 542.583924 377.685024 
L 549.395888 376.470159 
L 583.455711 371.048022 
L 658.38732 359.909624 
L 665.199284 358.566878 
L 672.011249 356.648669 
L 678.823213 356.226663 
L 685.635178 356.175511 
L 692.447142 358.362269 
L 699.259107 362.083594 
L 706.071071 360.433934 
L 712.883036 356.827702 
L 719.695 355.293135 
L 733.318929 353.029649 
L 753.754822 349.538509 
L 760.566787 348.528253 
L 767.378751 347.633089 
L 781.00268 346.200826 
L 815.062503 343.144481 
L 828.686432 342.172588 
L 862.746254 340.292744 
L 869.558218 340.203227 
L 883.182147 340.343896 
L 889.994112 340.062559 
L 896.806076 340.126499 
L 903.618041 339.909102 
L 917.24197 339.116242 
L 924.053934 338.489628 
L 944.489828 335.791347 
L 958.113757 336.098261 
L 964.925721 337.607252 
L 971.737685 342.875931 
L 978.54965 352.108909 
L 985.361614 362.17311 
L 992.173579 365.843283 
L 998.985543 365.280608 
L 1005.797508 362.722997 
L 1012.609472 359.679439 
L 1019.421437 356.878854 
L 1026.233401 354.20615 
L 1033.045366 351.763631 
L 1039.85733 349.858211 
L 1046.669295 348.579405 
L 1053.481259 347.991154 
L 1067.105188 347.965578 
L 1080.729117 347.479632 
L 1087.541082 347.722605 
L 1094.353046 348.28528 
L 1101.16501 348.553829 
L 1107.976975 348.387584 
L 1114.788939 348.720074 
L 1128.412868 350.535978 
L 1135.224833 352.096121 
L 1142.036797 355.318711 
L 1148.848762 360.344418 
L 1155.660726 361.687164 
L 1162.472691 356.44406 
L 1169.284655 353.387715 
L 1176.09662 353.707416 
L 1189.720549 356.201087 
L 1196.532513 357.978627 
L 1210.156442 363.017122 
L 1216.968406 363.82277 
L 1223.780371 365.587522 
L 1230.592335 368.771748 
L 1237.4043 370.229587 
L 1244.216264 369.359999 
L 1251.028229 369.718064 
L 1264.652158 371.406088 
L 1271.464122 373.810243 
L 1278.276087 377.135138 
L 1285.088051 380.792522 
L 1291.900016 383.887232 
L 1298.71198 386.585512 
L 1305.523945 388.669966 
L 1312.335909 390.306837 
L 1312.335909 390.306837 
" style="fill:none;stroke:#1f77b4;stroke-linecap:square;stroke-width:1.5;"/>
   </g>
   <g id="line2d_12">
    <path clip-path="url(#pbcb12aef83)" d="M 127.054091 473.493152 
L 133.866055 570.426628 
L 140.67802 588.317121 
L 147.489984 591.130493 
L 154.301949 590.299269 
L 167.925878 589.583138 
L 174.737842 586.028058 
L 181.549807 577.485636 
L 188.361771 564.633638 
L 195.173736 549.198452 
L 201.9857 531.43584 
L 208.797665 511.128405 
L 215.609629 488.122689 
L 222.421594 464.196234 
L 229.233558 442.418172 
L 236.045522 424.514891 
L 242.857487 410.153902 
L 249.669451 398.261009 
L 256.481416 387.557405 
L 270.105345 366.815175 
L 283.729274 345.356815 
L 297.353203 323.629905 
L 310.977132 301.698386 
L 317.789096 291.058722 
L 324.601061 280.981733 
L 331.413025 271.761543 
L 338.22499 263.538822 
L 345.036954 256.351934 
L 351.848918 250.315971 
L 358.660883 245.571601 
L 379.096776 233.231126 
L 385.908741 229.931807 
L 392.720705 227.041706 
L 399.53267 224.010936 
L 406.344634 220.686041 
L 413.156599 217.015869 
L 419.968563 213.102723 
L 426.780528 208.882664 
L 447.216421 195.736541 
L 460.84035 185.966465 
L 474.464279 176.554454 
L 488.088208 167.398205 
L 515.336066 149.354256 
L 522.14803 144.661039 
L 528.959995 140.300311 
L 535.771959 136.144192 
L 542.583924 131.821829 
L 549.395888 128.241173 
L 556.207853 125.03137 
L 569.831782 118.074667 
L 576.643746 114.903229 
L 583.455711 112.051492 
L 590.267675 109.417152 
L 597.079639 107.038573 
L 610.703568 102.728998 
L 617.515533 100.759637 
L 624.327497 99.071614 
L 631.139462 97.792808 
L 637.951426 96.833703 
L 644.763391 96.053632 
L 651.575355 95.529322 
L 658.38732 95.260772 
L 665.199284 94.698098 
L 672.011249 93.521597 
L 678.823213 96.565154 
L 685.635178 104.685571 
L 692.447142 119.302321 
L 699.259107 136.975416 
L 706.071071 137.077721 
L 712.883036 127.755227 
L 719.695 122.512123 
L 733.318929 117.166715 
L 746.942858 108.381319 
L 753.754822 104.365869 
L 760.566787 100.798001 
L 767.378751 97.690503 
L 774.190716 95.094528 
L 781.00268 92.856618 
L 787.814645 90.887257 
L 794.626609 89.109717 
L 801.438574 87.562362 
L 808.250538 86.181252 
L 815.062503 84.991962 
L 828.686432 83.022601 
L 842.310361 81.44967 
L 849.122325 80.810267 
L 855.934289 80.401049 
L 862.746254 79.838375 
L 869.558218 79.684918 
L 876.370183 80.030196 
L 889.994112 81.679855 
L 896.806076 82.869145 
L 903.618041 83.828249 
L 910.430005 84.403712 
L 917.24197 84.54438 
L 924.053934 83.943341 
L 930.865899 82.792416 
L 937.677863 81.973981 
L 944.489828 81.986769 
L 951.301792 84.557168 
L 958.113757 90.286218 
L 964.925721 107.204818 
L 971.737685 142.947439 
L 978.54965 196.836314 
L 985.361614 229.25404 
L 992.173579 227.092858 
L 998.985543 218.396979 
L 1005.797508 208.997757 
L 1012.609472 198.984707 
L 1019.421437 188.690321 
L 1026.233401 177.909989 
L 1033.045366 167.347053 
L 1039.85733 157.69207 
L 1046.669295 149.430984 
L 1053.481259 142.832347 
L 1060.293224 137.857792 
L 1067.105188 133.829554 
L 1073.917153 130.261686 
L 1080.729117 127.294857 
L 1087.541082 125.376648 
L 1094.353046 124.200147 
L 1101.16501 122.870189 
L 1107.976975 121.322834 
L 1114.788939 122.102905 
L 1121.600904 126.578725 
L 1128.412868 133.39476 
L 1135.224833 141.233839 
L 1142.036797 150.863247 
L 1148.848762 162.615472 
L 1155.660726 166.477465 
L 1162.472691 151.144584 
L 1169.284655 145.990997 
L 1182.908584 142.602162 
L 1189.720549 142.410341 
L 1196.532513 145.31323 
L 1203.344478 149.865778 
L 1210.156442 155.748285 
L 1216.968406 162.449227 
L 1223.780371 170.032545 
L 1230.592335 178.29363 
L 1237.4043 185.084089 
L 1244.216264 189.547121 
L 1251.028229 196.503824 
L 1257.840193 202.437483 
L 1264.652158 207.360885 
L 1271.464122 215.09766 
L 1278.276087 225.264166 
L 1285.088051 235.827101 
L 1291.900016 244.343948 
L 1298.71198 252.093511 
L 1305.523945 259.651253 
L 1312.335909 266.927657 
L 1312.335909 266.927657 
" style="fill:none;stroke:#ff7f0e;stroke-dasharray:6,2.25;stroke-dashoffset:0;stroke-width:1.5;"/>
   </g>
   <g id="line2d_13">
    <path clip-path="url(#pbcb12aef83)" d="M 127.054091 493.033303 
L 133.866055 567.958533 
L 140.67802 580.989564 
L 147.489984 583.214686 
L 154.301949 583.086805 
L 161.113913 581.846363 
L 167.925878 580.107188 
L 174.737842 576.833445 
L 181.549807 570.669601 
L 188.361771 561.999298 
L 195.173736 551.730488 
L 201.9857 540.528149 
L 208.797665 528.763136 
L 222.421594 503.826424 
L 229.233558 492.010259 
L 236.045522 481.741449 
L 249.669451 462.879064 
L 256.481416 452.878803 
L 263.29338 442.392595 
L 270.105345 431.471594 
L 276.917309 420.077435 
L 283.729274 408.337998 
L 304.165167 371.930398 
L 310.977132 360.318842 
L 317.789096 349.448993 
L 324.601061 339.372004 
L 331.413025 330.087874 
L 338.22499 321.980245 
L 345.036954 315.03633 
L 351.848918 308.680665 
L 358.660883 303.552654 
L 365.472847 299.281443 
L 372.284812 295.48339 
L 379.096776 292.056191 
L 385.908741 289.114937 
L 413.156599 278.462485 
L 419.968563 275.53402 
L 433.592492 269.178356 
L 440.404457 266.339407 
L 447.216421 263.628339 
L 460.84035 256.403086 
L 467.652315 253.039827 
L 481.276243 246.620222 
L 494.900172 240.341286 
L 501.712137 237.323304 
L 508.524101 234.573872 
L 522.14803 228.870398 
L 528.959995 226.415091 
L 535.771959 224.624763 
L 542.583924 221.440537 
L 549.395888 219.778089 
L 556.207853 218.396979 
L 563.019817 215.941672 
L 569.831782 213.332908 
L 576.643746 211.094998 
L 590.267675 206.964455 
L 597.079639 205.033459 
L 610.703568 201.529531 
L 617.515533 199.828719 
L 624.327497 198.434821 
L 631.139462 197.565233 
L 637.951426 197.053711 
L 644.763391 196.746797 
L 651.575355 196.810738 
L 658.38732 197.283896 
L 665.199284 197.398988 
L 672.011249 197.028135 
L 678.823213 201.312134 
L 685.635178 213.703762 
L 692.447142 240.405226 
L 699.259107 270.290917 
L 706.071071 271.838271 
L 712.883036 255.789259 
L 719.695 245.968031 
L 726.506964 241.441059 
L 733.318929 237.975495 
L 746.942858 224.38179 
L 753.754822 218.448131 
L 760.566787 213.38406 
L 767.378751 209.151213 
L 774.190716 205.698438 
L 781.00268 202.769972 
L 787.814645 200.276301 
L 794.626609 197.961663 
L 808.250538 193.690452 
L 815.062503 191.861759 
L 821.874467 190.237676 
L 828.686432 188.818202 
L 835.498396 187.667276 
L 842.310361 186.72096 
L 849.122325 186.183862 
L 862.746254 185.86416 
L 869.558218 186.298954 
L 883.182147 188.4985 
L 889.994112 189.22742 
L 896.806076 190.787563 
L 903.618041 192.117521 
L 910.430005 192.999896 
L 917.24197 193.421902 
L 924.053934 192.884804 
L 930.865899 191.644362 
L 937.677863 190.941019 
L 944.489828 191.478118 
L 951.301792 195.647024 
L 958.113757 204.330116 
L 964.925721 229.982959 
L 971.737685 284.81815 
L 978.54965 364.091319 
L 985.361614 395.549941 
L 998.985543 366.751235 
L 1005.797508 355.52332 
L 1012.609472 344.7302 
L 1019.421437 333.259312 
L 1026.233401 320.522407 
L 1033.045366 307.248403 
L 1039.85733 294.741683 
L 1046.669295 284.102019 
L 1053.481259 275.802569 
L 1060.293224 269.67709 
L 1067.105188 264.7409 
L 1073.917153 260.32902 
L 1080.729117 256.889032 
L 1087.541082 254.753427 
L 1094.353046 253.065403 
L 1101.16501 251.083254 
L 1107.976975 248.768616 
L 1114.788939 248.973225 
L 1121.600904 253.052615 
L 1128.412868 259.305975 
L 1135.224833 267.04275 
L 1142.036797 279.587834 
L 1148.848762 298.207246 
L 1155.660726 307.951746 
L 1162.472691 289.664824 
L 1169.284655 282.068718 
L 1176.09662 279.562258 
L 1182.908584 277.388288 
L 1189.720549 279.127464 
L 1203.344478 293.795366 
L 1210.156442 299.677873 
L 1216.968406 304.76752 
L 1223.780371 312.913512 
L 1230.592335 323.911242 
L 1237.4043 332.773366 
L 1244.216264 338.336171 
L 1251.028229 345.523059 
L 1257.840193 351.891512 
L 1264.652158 357.76123 
L 1271.464122 365.868859 
L 1278.276087 376.086517 
L 1285.088051 387.173763 
L 1291.900016 396.662502 
L 1298.71198 405.025891 
L 1305.523945 412.647574 
L 1312.335909 419.860038 
L 1312.335909 419.860038 
" style="fill:none;stroke:#2ca02c;stroke-dasharray:1.5,1.5;stroke-dashoffset:0;stroke-width:1.5;"/>
   </g>
   <g id="line2d_14">
    <path clip-path="url(#pbcb12aef83)" d="M 127.054091 470.564686 
L 133.866055 558.086152 
L 140.67802 571.769374 
L 147.489984 573.50855 
L 154.301949 573.495762 
L 161.113913 572.613386 
L 167.925878 570.925362 
L 174.737842 566.820396 
L 181.549807 559.28823 
L 188.361771 549.006632 
L 195.173736 537.062586 
L 208.797665 511.384166 
L 222.421594 485.398833 
L 229.233558 473.019993 
L 236.045522 461.971112 
L 242.857487 451.702301 
L 249.669451 440.423235 
L 256.481416 427.801422 
L 263.29338 414.169352 
L 270.105345 399.757211 
L 290.541238 355.715141 
L 297.353203 341.328576 
L 304.165167 327.312865 
L 310.977132 313.910981 
L 317.789096 301.27638 
L 324.601061 289.421851 
L 331.413025 278.475273 
L 338.22499 268.42386 
L 345.036954 259.318763 
L 351.848918 251.44132 
L 358.660883 245.021715 
L 365.472847 238.896235 
L 372.284812 231.09552 
L 379.096776 222.706554 
L 385.908741 216.440406 
L 392.720705 211.696037 
L 406.344634 202.974581 
L 419.968563 193.856696 
L 433.592492 184.342382 
L 440.404457 179.930502 
L 447.216421 175.710443 
L 454.028386 170.838193 
L 460.84035 166.272856 
L 467.652315 161.886552 
L 481.276243 153.612679 
L 494.900172 145.850328 
L 515.336066 134.635202 
L 528.959995 126.693818 
L 542.583924 119.276745 
L 549.395888 116.386644 
L 563.019817 110.874991 
L 569.831782 107.754705 
L 576.643746 104.762299 
L 583.455711 101.910562 
L 597.079639 96.488426 
L 617.515533 88.853956 
L 624.327497 86.500953 
L 631.139462 84.723413 
L 644.763391 81.628703 
L 658.38732 78.943211 
L 665.199284 75.503223 
L 672.011249 68.034998 
L 678.823213 72.114388 
L 685.635178 78.495629 
L 692.447142 93.406504 
L 699.259107 110.516925 
L 706.071071 104.647207 
L 712.883036 91.974242 
L 719.695 87.830911 
L 726.506964 85.963855 
L 733.318929 83.355091 
L 740.130893 80.388261 
L 746.942858 77.753922 
L 753.754822 74.761516 
L 760.566787 71.935355 
L 767.378751 69.428896 
L 774.190716 67.318867 
L 781.00268 65.45181 
L 787.814645 63.840515 
L 801.438574 60.45168 
L 808.250538 58.80202 
L 821.874467 56.193256 
L 828.686432 55.067907 
L 835.498396 54.121591 
L 842.310361 53.40546 
L 849.122325 52.842785 
L 855.934289 52.817209 
L 862.746254 52.625388 
L 869.558218 52.970666 
L 876.370183 53.737949 
L 883.182147 54.351776 
L 889.994112 54.006499 
L 896.806076 54.671478 
L 903.618041 54.760994 
L 910.430005 54.338988 
L 917.24197 53.737949 
L 924.053934 51.512827 
L 930.865899 47.356709 
L 937.677863 43.584232 
L 944.489828 40.016364 
L 951.301792 42.919253 
L 958.113757 45.016494 
L 964.925721 54.147167 
L 971.737685 81.066028 
L 978.54965 115.542632 
L 985.361614 145.019104 
L 992.173579 151.847927 
L 998.985543 150.31336 
L 1005.797508 144.878436 
L 1019.421437 129.123549 
L 1026.233401 120.977556 
L 1033.045366 113.164053 
L 1039.85733 106.642144 
L 1046.669295 102.038443 
L 1053.481259 99.468043 
L 1060.293224 98.342694 
L 1067.105188 97.537047 
L 1073.917153 96.39891 
L 1080.729117 95.772295 
L 1087.541082 96.347757 
L 1094.353046 97.716079 
L 1101.16501 98.82864 
L 1107.976975 99.058825 
L 1114.788939 102.076807 
L 1121.600904 110.644806 
L 1128.412868 119.928935 
L 1135.224833 128.45857 
L 1142.036797 143.088108 
L 1148.848762 159.584702 
L 1155.660726 158.088499 
L 1162.472691 130.440719 
L 1169.284655 120.542762 
L 1176.09662 119.826631 
L 1182.908584 121.74484 
L 1189.720549 124.289663 
L 1196.532513 128.663179 
L 1203.344478 135.312969 
L 1210.156442 144.239033 
L 1216.968406 149.776262 
L 1223.780371 156.247019 
L 1230.592335 165.569513 
L 1237.4043 171.260199 
L 1244.216264 170.748676 
L 1251.028229 175.045464 
L 1257.840193 178.268054 
L 1264.652158 180.352508 
L 1271.464122 187.270847 
L 1285.088051 208.332778 
L 1291.900016 215.430149 
L 1298.71198 221.427749 
L 1305.523945 226.504607 
L 1312.335909 231.837227 
L 1312.335909 231.837227 
" style="fill:none;stroke:#d62728;stroke-dasharray:4.5,1.5,2.25,1.5;stroke-dashoffset:0;stroke-width:1.5;"/>
   </g>
   <g id="line2d_15">
    <path clip-path="url(#pbcb12aef83)" d="M 127.054091 484.938463 
L 133.866055 562.101602 
L 140.67802 575.631367 
L 147.489984 577.153146 
L 167.925878 572.511081 
L 174.737842 568.674664 
L 181.549807 561.347107 
L 188.361771 551.334058 
L 195.173736 539.939899 
L 201.9857 527.471543 
L 208.797665 513.967354 
L 222.421594 485.168648 
L 229.233558 472.303862 
L 236.045522 461.408437 
L 242.857487 452.085943 
L 249.669451 443.74813 
L 263.29338 427.81421 
L 270.105345 419.412456 
L 283.729274 401.777725 
L 290.541238 392.941177 
L 297.353203 384.322026 
L 304.165167 375.894696 
L 317.789096 359.577135 
L 324.601061 351.776419 
L 331.413025 344.320982 
L 338.22499 337.274762 
L 345.036954 330.561032 
L 351.848918 324.294884 
L 358.660883 318.65535 
L 365.472847 313.297154 
L 372.284812 308.092415 
L 379.096776 303.220165 
L 385.908741 298.833861 
L 399.53267 290.483259 
L 413.156599 281.685076 
L 426.780528 272.605555 
L 440.404457 263.462094 
L 447.216421 258.922333 
L 460.84035 249.113893 
L 474.464279 239.740247 
L 488.088208 230.69909 
L 501.712137 222.067151 
L 522.14803 209.266306 
L 528.959995 205.455465 
L 535.771959 201.465591 
L 542.583924 197.629173 
L 549.395888 194.278702 
L 556.207853 191.247933 
L 569.831782 184.495838 
L 576.643746 181.337188 
L 590.267675 175.620926 
L 597.079639 172.986586 
L 610.703568 168.012032 
L 617.515533 165.671817 
L 624.327497 163.536212 
L 631.139462 161.733096 
L 637.951426 160.236893 
L 644.763391 158.919723 
L 651.575355 157.845526 
L 658.38732 157.065455 
L 665.199284 156.56672 
L 672.011249 156.323747 
L 678.823213 157.525825 
L 685.635178 164.456952 
L 692.447142 178.395935 
L 699.259107 194.432159 
L 706.071071 194.214762 
L 712.883036 183.856435 
L 719.695 176.835792 
L 726.506964 173.2935 
L 733.318929 170.544067 
L 746.942858 161.502911 
L 753.754822 157.410732 
L 760.566787 153.714984 
L 767.378751 150.492393 
L 774.190716 147.691808 
L 781.00268 145.249289 
L 794.626609 140.90135 
L 801.438574 138.970353 
L 808.250538 137.167237 
L 815.062503 135.517578 
L 828.686432 132.627477 
L 842.310361 130.312838 
L 849.122325 129.494403 
L 855.934289 129.110761 
L 862.746254 128.420206 
L 869.558218 128.228385 
L 876.370183 128.688755 
L 883.182147 129.289794 
L 889.994112 129.456038 
L 896.806076 130.121017 
L 903.618041 130.427931 
L 910.430005 130.453507 
L 917.24197 130.36399 
L 930.865899 129.225853 
L 937.677863 128.867788 
L 944.489828 129.31537 
L 951.301792 131.105698 
L 958.113757 136.962628 
L 964.925721 153.881228 
L 971.737685 188.728685 
L 978.54965 246.645798 
L 985.361614 279.02516 
L 992.173579 273.986665 
L 998.985543 262.643658 
L 1005.797508 251.786597 
L 1012.609472 241.556151 
L 1019.421437 231.530314 
L 1033.045366 210.672992 
L 1039.85733 200.404182 
L 1046.669295 192.283765 
L 1053.481259 186.362895 
L 1060.293224 182.24514 
L 1073.917153 175.390741 
L 1080.729117 172.56458 
L 1087.541082 170.914921 
L 1094.353046 169.955817 
L 1101.16501 168.792103 
L 1107.976975 167.398205 
L 1114.788939 168.804892 
L 1121.600904 174.163088 
L 1128.412868 180.697785 
L 1135.224833 187.616124 
L 1142.036797 195.774905 
L 1148.848762 205.826318 
L 1155.660726 210.724144 
L 1162.472691 198.076755 
L 1169.284655 195.838845 
L 1176.09662 195.301747 
L 1182.908584 194.444947 
L 1189.720549 195.902786 
L 1196.532513 201.695776 
L 1210.156442 214.279224 
L 1216.968406 220.839498 
L 1223.780371 231.453586 
L 1230.592335 240.90396 
L 1237.4043 241.901429 
L 1244.216264 240.648199 
L 1251.028229 245.71227 
L 1264.652158 256.44145 
L 1271.464122 264.676959 
L 1278.276087 275.840934 
L 1285.088051 287.989588 
L 1291.900016 298.373491 
L 1298.71198 308.117991 
L 1305.523945 318.514682 
L 1312.335909 328.144089 
L 1312.335909 328.144089 
" style="fill:none;stroke:#9467bd;stroke-dasharray:7.5,1.5,1.5,1.5;stroke-dashoffset:0;stroke-width:1.5;"/>
   </g>
   <g id="line2d_16">
    <path clip-path="url(#pbcb12aef83)" d="M 127.054091 536.64058 
L 133.866055 600.376259 
L 140.67802 611.067075 
L 147.489984 613.189893 
L 154.301949 613.688627 
L 161.113913 613.53517 
L 167.925878 612.588854 
L 174.737842 609.98009 
L 181.549807 605.158992 
L 188.361771 598.445262 
L 195.173736 590.555031 
L 208.797665 573.866615 
L 215.609629 565.298617 
L 222.421594 556.474857 
L 229.233558 547.881282 
L 236.045522 540.451421 
L 242.857487 533.801631 
L 249.669451 526.154373 
L 256.481416 517.138792 
L 263.29338 507.253624 
L 283.729274 475.897306 
L 290.541238 465.705224 
L 297.353203 455.756116 
L 304.165167 446.101132 
L 310.977132 436.842578 
L 317.789096 428.018819 
L 324.601061 419.604277 
L 331.413025 411.586165 
L 338.22499 403.938906 
L 345.036954 396.636925 
L 351.848918 389.833679 
L 358.660883 383.733775 
L 365.472847 377.838481 
L 379.096776 365.101575 
L 385.908741 359.487618 
L 440.404457 318.553046 
L 454.028386 308.680665 
L 467.652315 299.217503 
L 481.276243 290.355379 
L 494.900172 282.004777 
L 522.14803 266.18595 
L 528.959995 262.63087 
L 542.583924 254.842943 
L 556.207853 248.001332 
L 563.019817 244.650861 
L 576.643746 237.668582 
L 610.703568 221.210352 
L 617.515533 218.102854 
L 624.327497 215.136024 
L 637.951426 209.586007 
L 644.763391 207.00282 
L 651.575355 204.598665 
L 658.38732 202.411907 
L 665.199284 199.636898 
L 672.011249 195.48078 
L 678.823213 194.636768 
L 685.635178 193.933425 
L 692.447142 196.593341 
L 699.259107 200.634367 
L 706.071071 202.386331 
L 712.883036 201.324922 
L 719.695 199.636898 
L 726.506964 197.629173 
L 733.318929 195.263383 
L 746.942858 189.611061 
L 753.754822 186.644232 
L 760.566787 183.945952 
L 767.378751 181.503433 
L 781.00268 177.334526 
L 787.814645 175.314013 
L 801.438574 171.004437 
L 808.250538 168.958348 
L 815.062503 167.078504 
L 821.874467 165.339328 
L 828.686432 163.740821 
L 835.498396 162.398075 
L 849.122325 160.198529 
L 855.934289 159.46961 
L 862.746254 158.625598 
L 869.558218 158.369837 
L 876.370183 158.523293 
L 883.182147 158.382625 
L 889.994112 157.270064 
L 896.806076 157.065455 
L 903.618041 156.336535 
L 917.24197 154.239294 
L 924.053934 152.717515 
L 937.677863 148.497456 
L 944.489828 146.489731 
L 951.301792 146.911737 
L 958.113757 147.883629 
L 964.925721 152.781455 
L 971.737685 167.615602 
L 985.361614 216.274161 
L 992.173579 225.852416 
L 998.985543 225.200225 
L 1005.797508 219.471176 
L 1019.421437 204.816062 
L 1026.233401 197.680326 
L 1033.045366 191.017748 
L 1039.85733 185.608399 
L 1046.669295 181.835922 
L 1053.481259 179.6108 
L 1060.293224 178.587756 
L 1067.105188 177.782108 
L 1073.917153 176.503302 
L 1080.729117 175.339589 
L 1087.541082 174.789702 
L 1094.353046 174.636246 
L 1101.16501 174.099147 
L 1107.976975 173.242348 
L 1114.788939 172.948222 
L 1128.412868 171.886813 
L 1135.224833 172.232091 
L 1142.036797 172.730825 
L 1148.848762 173.383016 
L 1155.660726 172.718037 
L 1162.472691 171.157894 
L 1169.284655 172.168151 
L 1182.908584 181.797558 
L 1189.720549 184.623719 
L 1196.532513 188.728685 
L 1210.156442 200.762247 
L 1216.968406 202.156146 
L 1223.780371 205.429888 
L 1230.592335 210.493959 
L 1237.4043 210.609052 
L 1244.216264 206.20996 
L 1251.028229 205.762378 
L 1257.840193 207.667799 
L 1264.652158 209.944073 
L 1271.464122 213.754914 
L 1278.276087 219.151474 
L 1285.088051 225.328106 
L 1298.71198 239.049692 
L 1305.523945 244.957774 
L 1312.335909 249.497535 
L 1312.335909 249.497535 
" style="fill:none;stroke:#8c564b;stroke-dasharray:7.5,1.5,3,1.5,3,1.5;stroke-dashoffset:0;stroke-width:1.5;"/>
   </g>
   <g id="patch_3">
    <path d="M 67.79 653.56 
L 67.79 10.8 
" style="fill:none;stroke:#000000;stroke-linecap:square;stroke-linejoin:miter;stroke-width:0.8;"/>
   </g>
   <g id="patch_4">
    <path d="M 1371.6 653.56 
L 1371.6 10.8 
" style="fill:none;stroke:#000000;stroke-linecap:square;stroke-linejoin:miter;stroke-width:0.8;"/>
   </g>
   <g id="patch_5">
    <path d="M 67.79 653.56 
L 1371.6 653.56 
" style="fill:none;stroke:#000000;stroke-linecap:square;stroke-linejoin:miter;stroke-width:0.8;"/>
   </g>
   <g id="patch_6">
    <path d="M 67.79 10.8 
L 1371.6 10.8 
" style="fill:none;stroke:#000000;stroke-linecap:square;stroke-linejoin:miter;stroke-width:0.8;"/>
   </g>
  </g>
 </g>
 <defs>
  <clipPath id="pbcb12aef83">
   <rect height="642.76" width="1303.81" x="67.79" y="10.8"/>
  </clipPath>
 </defs>
</svg>
